<?xml version="1.0" encoding="utf-8"?>
<!-- Generator: Adobe Illustrator 24.1.2, SVG Export Plug-In . SVG Version: 6.00 Build 0)  -->
<svg version="1.1" id="Layer_1" xmlns="http://www.w3.org/2000/svg" xmlns:xlink="http://www.w3.org/1999/xlink" x="0px" y="0px"
	 viewBox="0 0 1966.42 363.82" style="enable-background:new 0 0 1966.42 363.82;" xml:space="preserve">
<style type="text/css">
	.st0{fill:#00B6FF;}
</style>
<path class="st0" d="M76.65,219.28c0,7.14,1.76,13.79,5.27,19.92c3.51,6.13,8.13,11.49,13.84,16.08
	c5.72,4.59,12.26,8.16,19.65,10.72c7.38,2.56,14.94,3.84,22.69,3.84c2.38,0,4.82-0.21,7.32-0.63c2.5-0.42,4.76-1.16,6.79-2.23
	c2.02-1.07,3.69-2.47,5-4.2c1.31-1.73,1.96-3.9,1.96-6.52c0-5-1.76-9.94-5.27-14.83c-3.51-4.88-8.13-9.74-13.84-14.56
	s-12.27-9.65-19.65-14.47c-7.39-4.82-14.89-9.62-22.51-14.38c-7.62-4.76-15.13-9.56-22.51-14.38c-7.39-4.82-13.93-9.65-19.65-14.47
	c-5.72-4.82-10.33-9.71-13.84-14.65c-3.51-4.94-5.27-9.91-5.27-14.92c0-4.76,1.22-9.2,3.66-13.31c2.44-4.11,5.69-7.83,9.74-11.17
	c4.05-3.33,8.75-6.31,14.11-8.93c5.36-2.62,10.96-4.82,16.79-6.61c5.83-1.79,11.7-3.13,17.6-4.02c5.9-0.89,11.52-1.34,16.88-1.34
	c3.93,0,8.25,0.09,12.95,0.27c4.7,0.18,9.11,0.71,13.22,1.61c4.11,0.89,7.53,2.23,10.27,4.02c2.74,1.79,4.11,4.35,4.11,7.68
	c0,1.07-0.18,2.41-0.54,4.02c-0.36,1.61-1.37,4.26-3.04,7.95c-1.67,3.46-3.6,6.05-5.81,7.77c-2.2,1.73-5.03,2.59-8.48,2.59
	c-4.88,0-10.03-0.56-15.45-1.7c-5.42-1.13-10.87-1.7-16.35-1.7c-2.98,0-5.98,0.15-9.02,0.45c-3.04,0.3-5.81,0.83-8.31,1.61
	c-2.5,0.78-4.53,1.91-6.07,3.39c-1.55,1.49-2.32,3.37-2.32,5.63c0,2.26,1.64,4.82,4.91,7.68c3.27,2.86,7.62,6.01,13.04,9.47
	c5.42,3.46,11.58,7.24,18.49,11.34c6.91,4.11,13.96,8.52,21.17,13.22c7.2,4.71,14.26,9.71,21.17,15c6.91,5.3,13.07,10.9,18.49,16.79
	c5.42,5.89,9.76,12.12,13.04,18.67c3.27,6.55,4.91,13.34,4.91,20.36c0,8.57-1.97,16.14-5.9,22.69c-3.93,6.55-8.99,12.03-15.18,16.43
	c-6.19,4.4-13.04,7.71-20.54,9.91c-7.5,2.2-14.83,3.3-21.97,3.3c-7.27,0-14.62-0.87-22.06-2.59c-7.44-1.73-14.62-4.17-21.53-7.32
	c-6.91-3.15-13.37-6.97-19.38-11.43c-6.01-4.47-11.23-9.47-15.63-15c-4.41-5.54-7.89-11.52-10.45-17.95
	c-2.56-6.43-3.84-13.16-3.84-20.19c0-2.98,0.21-5.98,0.63-9.02c0.42-3.04,1.16-5.72,2.23-8.04s2.56-4.23,4.47-5.72
	c1.9-1.49,4.35-2.23,7.32-2.23c0.95,0,2.02,0.09,3.22,0.27c1.19,0.18,3.27,0.75,6.25,1.7c3.45,1.07,6.52,2.77,9.2,5.09
	C75.31,212.58,76.65,215.59,76.65,219.28z"/>
<path class="st0" d="M227.23,86.2c0-6.31,1.79-10.75,5.36-13.31c3.57-2.56,9.47-3.84,17.68-3.84c2.98,0,5.51,0.27,7.59,0.8
	c2.08,0.54,3.87,1.52,5.36,2.95c1.49,1.43,2.68,3.3,3.57,5.63c0.89,2.32,1.64,5.27,2.23,8.84c1.43,11.08,3.01,22.51,4.73,34.3
	c1.73,11.79,3.54,23.64,5.45,35.55c0.71,5.36,3.51,8.04,8.4,8.04c1.31,0,3.48-0.15,6.52-0.45c3.04-0.3,6.64-0.65,10.81-1.07
	c4.17-0.42,8.66-0.86,13.49-1.34c4.82-0.47,9.65-0.92,14.47-1.34c4.82-0.42,9.41-0.77,13.75-1.07c4.35-0.3,8.19-0.45,11.52-0.45
	c2.62,0,4.7,0.51,6.25,1.52c1.55,1.01,2.77,2.32,3.66,3.93c0.89,1.61,1.49,3.39,1.79,5.36c0.3,1.96,0.45,3.96,0.45,5.98
	c0,1.79-0.33,3.63-0.98,5.54c-0.66,1.91-1.55,3.6-2.68,5.09c-1.13,1.49-2.53,2.71-4.2,3.66c-1.67,0.95-3.57,1.43-5.72,1.43
	c-10.36,0-20.81,0.33-31.35,0.98c-10.54,0.66-21.05,1.52-31.53,2.59c-5.36,0.71-8.04,3.39-8.04,8.04c0,0.36,0.06,0.8,0.18,1.34
	c0.12,0.54,0.18,0.98,0.18,1.34c1.43,10.36,2.77,20.07,4.02,29.12c1.25,9.05,2.32,17.12,3.22,24.2c0.89,7.09,1.61,12.98,2.14,17.68
	c0.54,4.71,0.8,7.83,0.8,9.38c0,4.29-0.42,7.89-1.25,10.81c-0.83,2.92-2.2,5.3-4.11,7.15c-1.91,1.84-4.44,3.15-7.59,3.93
	c-3.16,0.77-7.12,1.16-11.88,1.16c-4.53,0-7.86-1.07-10-3.21s-3.34-5.42-3.57-9.83c-0.71-14.05-1.85-28.19-3.39-42.42
	c-1.55-14.23-3.34-28.43-5.36-42.6c-1.07-5.12-3.75-7.68-8.04-7.68c-0.36,0-0.78,0.06-1.25,0.18c-0.48,0.12-0.89,0.18-1.25,0.18
	c-7.39,1.67-14.35,3.34-20.9,5c-6.55,1.67-12.68,3.46-18.4,5.36c-3.22,1.07-6.07,1.82-8.57,2.23c-2.5,0.42-4.76,0.63-6.79,0.63
	c-2.74,0-4.76-1.22-6.07-3.66c-1.31-2.44-1.96-5.51-1.96-9.2c0-1.31,0.12-2.83,0.36-4.55c0.24-1.73,0.69-3.45,1.34-5.18
	c0.66-1.72,1.61-3.33,2.86-4.82c1.25-1.49,2.95-2.71,5.09-3.66c5-2.02,11.67-4.14,20.01-6.34c8.33-2.2,17.74-4.26,28.22-6.16
	c2.38-0.59,4.26-1.58,5.63-2.95c1.37-1.37,2.05-3.42,2.05-6.16c0-0.59,0-1.22,0-1.88c0-0.65-0.12-1.34-0.36-2.05
	c-1.91-10.96-3.72-20.93-5.45-29.92c-1.73-8.99-3.22-16.7-4.47-23.13c-1.25-6.43-2.23-11.49-2.95-15.18
	C227.59,88.94,227.23,86.8,227.23,86.2z"/>
<path class="st0" d="M397.47,229.28c0,15.96,2.44,28.29,7.32,36.98c4.88,8.69,11.97,13.04,21.26,13.04c5.83,0,11.22-1.72,16.17-5.18
	c4.94-3.45,9.2-8.28,12.77-14.47c3.57-6.19,6.34-13.55,8.31-22.06c1.96-8.51,2.95-17.77,2.95-27.78c0-6.07-0.24-11.34-0.71-15.81
	c-0.48-4.47-0.98-8.45-1.52-11.97c-0.54-3.51-1.04-6.64-1.52-9.38c-0.48-2.74-0.71-5.36-0.71-7.86c0-3.81,1.61-6.58,4.82-8.31
	c3.22-1.72,8.33-2.59,15.36-2.59c8.93,0,15.87,2.03,20.81,6.07c4.94,4.05,7.41,9.95,7.41,17.68c0,21.08-2.05,40.01-6.16,56.81
	c-4.11,16.79-10,31.05-17.68,42.78c-7.68,11.73-17,20.75-27.96,27.06c-10.96,6.31-23.22,9.47-36.8,9.47c-9.65,0-18.55-2-26.71-5.98
	c-8.16-3.99-15.18-9.59-21.08-16.79c-5.89-7.2-10.51-15.78-13.84-25.72c-3.34-9.94-5-20.87-5-32.78c0-4.52,0.12-9.35,0.36-14.47
	c0.24-5.12,0.59-10.63,1.07-16.52c0.47-5.89,1.1-12.29,1.88-19.2c0.77-6.91,1.64-14.41,2.59-22.51c0.36-3.45,1.99-6.22,4.91-8.31
	c2.92-2.08,6.64-3.13,11.16-3.13c4.05,0,7.86,0.42,11.43,1.25c3.57,0.83,6.64,1.96,9.2,3.39c2.56,1.43,4.58,3.1,6.07,5
	c1.49,1.91,2.23,3.93,2.23,6.07s-0.45,5.51-1.34,10.09c-0.89,4.59-1.85,9.83-2.86,15.72c-1.01,5.9-1.97,12.27-2.86,19.11
	C397.92,215.86,397.47,222.61,397.47,229.28z"/>
<path class="st0" d="M651.13,161.94c0.47,0.24,1.19,0.36,2.14,0.36c2.62,0,3.93-1.72,3.93-5.18v-55.55c0-7.03,1.58-12.03,4.73-15
	c3.15-2.98,8.42-4.47,15.81-4.47c7.5,0,12.8,1.55,15.9,4.64c3.1,3.1,4.64,8.4,4.64,15.9c0,2.86-0.18,7.06-0.54,12.59
	c-0.36,5.54-0.75,11.82-1.16,18.85c-0.42,7.03-0.8,14.56-1.16,22.6c-0.36,8.04-0.54,15.99-0.54,23.85c0,12.15,0.83,22.63,2.5,31.44
	c1.67,8.81,4.05,16.11,7.15,21.88c3.1,5.78,6.79,10.06,11.08,12.86c4.29,2.8,9.11,4.2,14.47,4.2c2.98,0,5.69-0.39,8.13-1.16
	c2.44-0.77,5.33-1.16,8.66-1.16c2.38,0,4.38,1.22,5.98,3.66c1.61,2.44,2.41,5.39,2.41,8.84c0,3.1-0.92,6.01-2.77,8.75
	c-1.85,2.74-4.35,5.12-7.5,7.15c-3.16,2.03-6.82,3.6-10.99,4.73c-4.17,1.13-8.52,1.7-13.04,1.7c-9.77,0-18.7-3.01-26.79-9.02
	c-8.1-6.01-14.17-15.21-18.22-27.6c-0.36-1.9-0.95-2.86-1.79-2.86c-0.95,0-1.73,0.95-2.32,2.86c-3.22,8.69-7.41,16.52-12.59,23.49
	c-5.18,6.97-11.2,12.92-18.04,17.86c-6.85,4.94-14.35,8.72-22.51,11.34c-8.16,2.62-16.76,3.93-25.81,3.93
	c-9.53,0-18.25-1.58-26.17-4.73c-7.92-3.16-14.74-7.56-20.45-13.22c-5.72-5.66-10.18-12.33-13.4-20.01
	c-3.22-7.68-4.82-15.99-4.82-24.92c0-11.43,2.38-22.21,7.15-32.33c4.76-10.12,11.22-18.96,19.38-26.53
	c8.16-7.56,17.65-13.55,28.49-17.95c10.83-4.4,22.39-6.61,34.65-6.61c5,0,10.3,0.39,15.9,1.16
	C639.22,159.05,645.06,160.27,651.13,161.94z M599.86,271.26c6.79,0,12.83-1.49,18.13-4.47c5.3-2.97,10-6.76,14.11-11.34
	c4.11-4.58,7.59-9.65,10.45-15.18c2.86-5.54,5.18-10.92,6.97-16.17c1.79-5.24,3.1-9.94,3.93-14.11c0.83-4.17,1.25-7.15,1.25-8.93
	c0-1.31-0.36-2.47-1.07-3.48c-0.71-1.01-1.79-1.81-3.22-2.41c-3.22-0.83-6.55-1.58-10-2.23c-3.46-0.65-6.85-1.22-10.18-1.7
	c-3.34-0.47-6.52-0.83-9.56-1.07c-3.04-0.24-5.81-0.36-8.31-0.36c-7.15,0-13.64,1.07-19.47,3.21c-5.84,2.14-10.81,5.18-14.92,9.11
	c-4.11,3.93-7.3,8.61-9.56,14.02c-2.26,5.42-3.39,11.34-3.39,17.77c0,5.72,0.86,10.87,2.59,15.45c1.72,4.59,4.11,8.48,7.15,11.7
	c3.04,3.22,6.7,5.72,10.99,7.5C590.04,270.37,594.74,271.26,599.86,271.26z"/>
<path class="st0" d="M772.78,110.31c-3.46,0-6.7-0.5-9.74-1.52c-3.04-1.01-5.66-2.44-7.86-4.29c-2.21-1.84-3.96-4.02-5.27-6.52
	c-1.31-2.5-1.96-5.24-1.96-8.22c0-5,1.99-9.05,5.98-12.15c3.99-3.1,9.32-4.64,15.99-4.64c3.1,0,6.07,0.57,8.93,1.7
	c2.86,1.13,5.39,2.65,7.59,4.55c2.2,1.91,3.96,4.14,5.27,6.7c1.31,2.56,1.96,5.21,1.96,7.95c0,5.12-1.88,9.14-5.63,12.06
	C784.3,108.86,779.21,110.31,772.78,110.31z M748.31,164.8c0-4.17,1.81-7.59,5.45-10.27c3.63-2.68,8.42-4.02,14.38-4.02
	c10.72,0,16.43,3.69,17.15,11.08c0.47,5.12,0.98,10.9,1.52,17.33c0.54,6.43,1.07,13.25,1.61,20.45c0.54,7.21,1.01,14.65,1.43,22.33
	c0.42,7.68,0.8,15.25,1.16,22.69c0.36,7.44,0.65,14.62,0.89,21.53c0.24,6.91,0.36,13.22,0.36,18.93c0,5.96-2.12,10.42-6.34,13.4
	c-4.23,2.98-10.39,4.47-18.49,4.47c-3.69,0-6.58-0.87-8.66-2.59c-2.08-1.73-3.13-4.26-3.13-7.59c0-16.43-0.39-31.82-1.16-46.18
	c-0.78-14.35-1.61-27.12-2.5-38.32c-0.89-11.19-1.73-20.51-2.5-27.96C748.69,172.63,748.31,167.54,748.31,164.8z"/>
<path class="st0" d="M827.62,233.21c0-2.02,0.24-4.29,0.71-6.79c0.47-2.5,0.71-5.24,0.71-8.22c0-2.02-0.87-3.57-2.59-4.64
	c-1.73-1.07-3.66-2.26-5.81-3.57c-2.14-1.31-4.08-2.98-5.81-5c-1.73-2.02-2.59-4.94-2.59-8.75c0-2.74,0.74-5.48,2.23-8.22
	c1.49-2.74,3.66-5.24,6.52-7.5c7.02-5.24,14.32-9.94,21.88-14.11c7.56-4.17,15.12-7.68,22.69-10.54c7.56-2.86,15.03-5.06,22.42-6.61
	c7.38-1.55,14.47-2.32,21.26-2.32c11.43,0,22.18,2.12,32.24,6.34c10.06,4.23,18.81,10,26.26,17.33c7.44,7.32,13.34,15.9,17.68,25.72
	c4.35,9.83,6.52,20.34,6.52,31.53c0,10.96-2.29,21.35-6.88,31.17c-4.59,9.83-10.75,18.43-18.49,25.81
	c-7.74,7.39-16.82,13.25-27.24,17.6c-10.42,4.35-21.41,6.52-32.96,6.52c-11.31,0-21.79-1.91-31.44-5.72
	c-9.65-3.81-17.98-9.08-25.01-15.81c-7.03-6.73-12.5-14.71-16.43-23.94C829.58,254.26,827.62,244.17,827.62,233.21z M910.33,276.8
	c5,0,10.18-1.01,15.54-3.04c5.36-2.02,10.27-4.97,14.74-8.84c4.47-3.87,8.16-8.6,11.08-14.2c2.92-5.6,4.38-11.91,4.38-18.94
	c0-7.15-1.31-13.81-3.93-20.01c-2.62-6.19-6.22-11.58-10.81-16.17c-4.59-4.58-10-8.19-16.26-10.81c-6.25-2.62-13.01-3.93-20.27-3.93
	c-13.22,0-23.34,3.42-30.37,10.27c-7.03,6.85-10.54,17.36-10.54,31.53c0,7.74,1.16,14.92,3.48,21.53s5.57,12.33,9.74,17.15
	c4.17,4.82,9.08,8.61,14.74,11.34C897.49,275.43,903.66,276.8,910.33,276.8z"/>
<path class="st0" d="M1175.95,107.81c2.5-1.55,5.06-2.62,7.68-3.21c2.62-0.59,5.06-0.89,7.32-0.89c2.97,0,5.65,0.51,8.04,1.52
	c2.38,1.01,4.4,2.29,6.07,3.84c1.67,1.55,2.95,3.3,3.84,5.27s1.34,3.9,1.34,5.81c0,2.62-0.87,5.12-2.59,7.5
	c-1.73,2.38-4.14,4.41-7.24,6.07c-6.19,3.57-11.37,6.61-15.54,9.11c-4.17,2.5-7.71,4.76-10.63,6.79c-2.92,2.03-5.45,3.93-7.59,5.72
	s-4.29,3.75-6.43,5.9c-3.1,2.86-6.07,6.13-8.93,9.82c-2.86,3.69-5.39,7.35-7.59,10.99c-2.21,3.63-3.99,7.12-5.36,10.45
	c-1.37,3.33-2.05,6.07-2.05,8.22c0,1.79,0.47,3.22,1.43,4.29c0.95,1.07,2.32,1.61,4.11,1.61c1.9,0,3.99-0.65,6.25-1.96
	c7.26-4.05,14.92-7.68,22.95-10.9c8.04-3.21,16.17-5.95,24.38-8.22c8.22-2.26,16.43-3.96,24.65-5.09c8.22-1.13,16.19-1.7,23.94-1.7
	c12.26,0,23.52,1.34,33.76,4.02c10.24,2.68,19.05,6.4,26.44,11.17c7.38,4.76,13.1,10.51,17.15,17.24
	c4.05,6.73,6.07,14.08,6.07,22.06c0,8.93-2.56,17.51-7.68,25.72c-5.12,8.22-12.15,15.42-21.08,21.61
	c-8.93,6.19-19.47,11.14-31.62,14.83c-12.15,3.69-25.25,5.54-39.3,5.54c-18.7,0-35.82-1.94-51.36-5.81
	c-15.54-3.87-28.88-9.26-40.01-16.17c-11.14-6.91-19.77-15.15-25.9-24.74c-6.13-9.58-9.2-20.1-9.2-31.53
	c0-11.31,1.58-22.42,4.73-33.31c3.15-10.9,7.86-21.26,14.11-31.08c6.25-9.82,14.02-18.99,23.31-27.51
	C1152.73,122.25,1163.57,114.6,1175.95,107.81z M1291.53,239.46c0-4.05-1.28-7.74-3.84-11.08c-2.56-3.33-6.13-6.19-10.72-8.58
	c-4.59-2.38-10.12-4.23-16.61-5.54c-6.49-1.31-13.67-1.96-21.53-1.96c-14.89,0-29.45,2.05-43.68,6.16
	c-14.23,4.11-27.6,10.03-40.1,17.77c-2.98,1.91-4.47,4.23-4.47,6.97c0,1.91,1.07,3.84,3.21,5.81s5.06,3.84,8.75,5.63
	c3.69,1.79,8.04,3.51,13.04,5.18c5,1.67,10.3,3.1,15.9,4.29c5.6,1.19,11.37,2.14,17.33,2.86c5.95,0.71,11.79,1.07,17.51,1.07
	c9.17,0,17.71-0.74,25.63-2.23c7.92-1.49,14.83-3.51,20.72-6.07c5.89-2.56,10.51-5.57,13.84-9.02
	C1289.86,247.27,1291.53,243.51,1291.53,239.46z"/>
<path class="st0" d="M1327.61,120.5c0-12.86,8.33-19.29,25.01-19.29c2.86,0,5.36,0.78,7.5,2.32c2.14,1.55,3.39,3.69,3.75,6.43
	c1.07,7.27,2.02,14.47,2.86,21.62c0.83,7.15,1.64,15.16,2.41,24.03c0.77,8.87,1.55,19.11,2.32,30.72
	c0.77,11.61,1.63,25.46,2.59,41.53c0,1.67,0.27,2.86,0.8,3.57c0.54,0.71,1.16,1.07,1.88,1.07c1.07,0,2.14-1.07,3.21-3.22
	c4.05-8.93,8.57-16.94,13.58-24.03c5-7.08,10.36-13.1,16.08-18.04c5.72-4.94,11.76-8.69,18.13-11.25
	c6.37-2.56,12.89-3.84,19.56-3.84c8.81,0,16.79,2.5,23.94,7.5c7.14,5,13.22,12.09,18.22,21.26c5,9.17,8.87,20.27,11.61,33.32
	c2.74,13.04,4.11,27.6,4.11,43.68c0,4.41-0.33,8.01-0.98,10.81c-0.66,2.8-1.76,5.03-3.3,6.7c-1.55,1.67-3.69,2.83-6.43,3.48
	c-2.74,0.65-6.13,0.98-10.18,0.98c-5.6,0-9.62-1.07-12.06-3.22c-2.44-2.14-3.66-5.48-3.66-10c0-11.19-0.75-21.76-2.23-31.71
	c-1.49-9.94-3.54-18.67-6.16-26.17c-2.62-7.5-5.69-13.46-9.2-17.86c-3.51-4.4-7.3-6.61-11.34-6.61c-9.17,0-18.31,7.44-27.42,22.33
	c-9.11,14.89-18.61,37.33-28.49,67.34c-0.96,2.74-2.03,5-3.22,6.79c-1.19,1.79-2.59,3.22-4.2,4.29c-1.61,1.07-3.54,1.81-5.81,2.23
	c-2.26,0.42-4.94,0.63-8.04,0.63c-6.31,0-10.81-1.19-13.49-3.57c-2.68-2.38-4.14-6.31-4.38-11.79c-0.71-20.72-2-40.52-3.84-59.4
	c-1.85-18.87-3.75-35.96-5.72-51.27c-1.96-15.3-3.69-28.28-5.18-38.94C1328.36,132.26,1327.61,124.78,1327.61,120.5z"/>
<path class="st0" d="M1555.91,110.31c-3.46,0-6.7-0.5-9.74-1.52c-3.04-1.01-5.66-2.44-7.86-4.29c-2.21-1.84-3.96-4.02-5.27-6.52
	c-1.31-2.5-1.96-5.24-1.96-8.22c0-5,1.99-9.05,5.98-12.15c3.99-3.1,9.32-4.64,15.99-4.64c3.09,0,6.07,0.57,8.93,1.7
	c2.86,1.13,5.39,2.65,7.59,4.55c2.2,1.91,3.96,4.14,5.27,6.7c1.31,2.56,1.96,5.21,1.96,7.95c0,5.12-1.88,9.14-5.63,12.06
	C1567.43,108.86,1562.34,110.31,1555.91,110.31z M1531.43,164.8c0-4.17,1.81-7.59,5.45-10.27c3.63-2.68,8.42-4.02,14.38-4.02
	c10.72,0,16.43,3.69,17.15,11.08c0.47,5.12,0.98,10.9,1.52,17.33c0.54,6.43,1.07,13.25,1.61,20.45c0.54,7.21,1.01,14.65,1.43,22.33
	c0.42,7.68,0.8,15.25,1.16,22.69c0.36,7.44,0.65,14.62,0.89,21.53c0.24,6.91,0.36,13.22,0.36,18.93c0,5.96-2.12,10.42-6.34,13.4
	c-4.23,2.98-10.39,4.47-18.49,4.47c-3.69,0-6.58-0.87-8.66-2.59c-2.08-1.73-3.13-4.26-3.13-7.59c0-16.43-0.39-31.82-1.16-46.18
	c-0.78-14.35-1.61-27.12-2.5-38.32c-0.89-11.19-1.73-20.51-2.5-27.96C1531.82,172.63,1531.43,167.54,1531.43,164.8z"/>
<path class="st0" d="M1615.57,251.25c-2.26-27.87-4.85-55.55-7.77-83.06c-2.92-27.51-7.18-54.96-12.77-82.35
	c-0.24-0.95-0.36-1.81-0.36-2.59c0-0.77,0-1.52,0-2.23c0-2.74,0.56-5.12,1.7-7.14c1.13-2.02,2.65-3.72,4.56-5.09
	c1.9-1.37,4.08-2.41,6.52-3.13c2.44-0.71,5.03-1.07,7.77-1.07c7.26,0,12.26,3.39,15.01,10.18c1.19,3.46,2.41,8.4,3.66,14.83
	c1.25,6.43,2.56,13.87,3.93,22.33c1.37,8.46,2.71,17.71,4.02,27.78c1.31,10.06,2.56,20.39,3.75,30.99c0.36,2.98,1.31,4.47,2.86,4.47
	c1.31,0,2.68-0.89,4.11-2.68c17.39-22.87,37.99-34.3,61.81-34.3c8.93,0,17.27,1.96,25.01,5.89c7.74,3.93,14.47,9.29,20.19,16.08
	s10.21,14.83,13.49,24.12c3.27,9.29,4.91,19.29,4.91,30.01c0,10-1.58,19.29-4.73,27.87c-3.16,8.58-7.53,15.96-13.13,22.15
	c-5.6,6.19-12.24,11.05-19.92,14.56c-7.68,3.51-16.05,5.27-25.1,5.27c-11.2,0-22.15-2.17-32.87-6.52
	c-10.72-4.35-20.84-10.21-30.37-17.59c-1.07-0.95-2.21-1.43-3.39-1.43c-1.55,0-2.98,0.83-4.29,2.5c-1.91,2.14-3.93,3.54-6.07,4.2
	c-2.14,0.66-4.76,0.98-7.86,0.98C1620.81,266.26,1615.93,261.26,1615.57,251.25z M1708.1,171.41c-4.76,0-9.5,1.1-14.2,3.3
	c-4.71,2.21-9.14,5.33-13.31,9.38c-4.17,4.05-8.01,8.9-11.52,14.56c-3.51,5.66-6.46,11.94-8.84,18.85
	c-0.24,0.36-0.42,0.89-0.54,1.61c-0.12,0.71-0.18,1.31-0.18,1.79c0,2.03,0.71,3.57,2.14,4.64c4.29,3.69,8.72,7.15,13.31,10.36
	c4.58,3.22,9.14,6.02,13.67,8.4c4.52,2.38,8.99,4.26,13.4,5.63c4.4,1.37,8.51,2.05,12.33,2.05c8.57,0,15.09-2.5,19.56-7.5
	c4.47-5,6.7-12.26,6.7-21.79c0-7.38-0.83-14.2-2.5-20.45c-1.67-6.25-3.93-11.67-6.79-16.26c-2.86-4.58-6.28-8.16-10.27-10.72
	C1717.06,172.69,1712.75,171.41,1708.1,171.41z"/>
<path class="st0" d="M1791.88,89.06c0-6.19,1.79-10.6,5.36-13.22c3.57-2.62,9.47-3.93,17.68-3.93c2.86,0,5.36,0.3,7.5,0.89
	c2.14,0.6,3.93,1.58,5.36,2.95c1.43,1.37,2.59,3.22,3.48,5.54c0.89,2.32,1.63,5.27,2.23,8.84c1.55,10.6,3.13,21.7,4.73,33.32
	c1.61,11.61,3.15,23.16,4.64,34.65c1.49,11.49,2.89,22.69,4.2,33.58c1.31,10.9,2.47,21.02,3.48,30.37
	c1.01,9.35,1.79,17.63,2.32,24.83c0.54,7.21,0.8,12.89,0.8,17.06c0,4.29-0.39,7.92-1.16,10.9c-0.78,2.98-2.08,5.36-3.93,7.15
	c-1.85,1.79-4.23,3.07-7.15,3.84c-2.92,0.78-6.52,1.16-10.81,1.16c-4.17,0-7.47-1.07-9.91-3.21c-2.44-2.14-3.66-5.42-3.66-9.83
	c0-4.52-0.36-10.57-1.07-18.13c-0.71-7.56-1.67-15.99-2.86-25.28c-1.19-9.29-2.53-19.17-4.02-29.65
	c-1.49-10.48-3.04-20.84-4.64-31.08c-1.61-10.24-3.16-20.1-4.64-29.56c-1.49-9.47-2.83-17.86-4.02-25.19
	c-1.19-7.32-2.14-13.34-2.86-18.04C1792.24,92.3,1791.88,89.65,1791.88,89.06z"/>
<path class="st0" d="M1908.88,110.31c-3.46,0-6.7-0.5-9.74-1.52c-3.04-1.01-5.66-2.44-7.86-4.29c-2.21-1.84-3.96-4.02-5.27-6.52
	c-1.31-2.5-1.96-5.24-1.96-8.22c0-5,1.99-9.05,5.98-12.15c3.99-3.1,9.32-4.64,15.99-4.64c3.09,0,6.07,0.57,8.93,1.7
	c2.86,1.13,5.39,2.65,7.59,4.55c2.2,1.91,3.96,4.14,5.27,6.7c1.31,2.56,1.96,5.21,1.96,7.95c0,5.12-1.88,9.14-5.63,12.06
	C1920.41,108.86,1915.32,110.31,1908.88,110.31z M1884.41,164.8c0-4.17,1.81-7.59,5.45-10.27c3.63-2.68,8.42-4.02,14.38-4.02
	c10.72,0,16.43,3.69,17.15,11.08c0.47,5.12,0.98,10.9,1.52,17.33c0.54,6.43,1.07,13.25,1.61,20.45c0.54,7.21,1.01,14.65,1.43,22.33
	c0.42,7.68,0.8,15.25,1.16,22.69c0.36,7.44,0.65,14.62,0.89,21.53c0.24,6.91,0.36,13.22,0.36,18.93c0,5.96-2.12,10.42-6.34,13.4
	c-4.23,2.98-10.39,4.47-18.49,4.47c-3.69,0-6.58-0.87-8.66-2.59c-2.08-1.73-3.13-4.26-3.13-7.59c0-16.43-0.39-31.82-1.16-46.18
	c-0.78-14.35-1.61-27.12-2.5-38.32c-0.89-11.19-1.73-20.51-2.5-27.96C1884.8,172.63,1884.41,167.54,1884.41,164.8z"/>
</svg>
