<?xml version="1.0" encoding="utf-8"?>
<!-- Generator: Adobe Illustrator 24.1.2, SVG Export Plug-In . SVG Version: 6.00 Build 0)  -->
<svg version="1.1" id="Layer_1" xmlns="http://www.w3.org/2000/svg" xmlns:xlink="http://www.w3.org/1999/xlink" x="0px" y="0px"
	 viewBox="0 0 300 300" style="enable-background:new 0 0 300 300;" xml:space="preserve">
<style type="text/css">
	.st0{fill:none;stroke:#1D1D1B;stroke-miterlimit:10;}
	.st1{fill:none;stroke:#00B6FF;stroke-miterlimit:10;}
	.st2{fill:#00B6FF;}
</style>
<path class="st0" d="M771.9,54.33"/>
<g>
	<g>
		<path class="st0" d="M134.26,245.8"/>
	</g>
</g>
<g>
	<g>
		<path class="st0" d="M134.26,245.8"/>
	</g>
</g>
<g>
	<g>
		<g>
			<path class="st1" d="M38.3,68.98c-10.52,17.66-16.26,38.13-16.37,58.69c-0.11,10.28,1.21,20.56,3.72,30.51
				c2.66,9.92,6.45,19.57,11.61,28.46c2.5,4.49,5.42,8.74,8.48,12.85l2.38,3.03c0.78,1.02,1.67,1.96,2.49,2.94
				c1.64,1.98,3.46,3.79,5.23,5.66c3.67,3.59,7.44,7.1,11.55,10.19l1.52,1.19l1.57,1.12l3.14,2.23c2.18,1.36,4.28,2.84,6.54,4.07
				c4.41,2.65,9.07,4.83,13.78,6.88c2.4,0.93,4.76,1.94,7.21,2.71c1.22,0.4,2.42,0.85,3.66,1.2l3.71,1.05
				c9.92,2.7,20.21,3.95,30.48,4.03"/>
			<path class="st2" d="M46.57,63.06c-2.25,3.16-4.91,5.65-7.01,7.43c-0.53,0.44-1.04,0.83-1.49,1.17
				c-0.43,0.35-0.82,0.64-1.15,0.88c-0.65,0.48-1.05,0.73-1.05,0.73s-0.01-0.47,0.03-1.29c0.02-0.41,0.06-0.91,0.12-1.48
				c0.08-0.56,0.19-1.2,0.33-1.89c0.54-2.78,1.76-6.47,4.17-9.85c2.4-3.39,5.5-5.74,7.94-7.17c2.47-1.41,4.22-2,4.22-2
				s-0.4,1.86-1.4,4.41C50.31,56.58,48.82,59.89,46.57,63.06z"/>
			<g>
				<g>
					<path class="st2" d="M31.09,72.04c0.23,1.61,0.27,3.34,0.17,5.02c-0.11,1.68-0.36,3.29-0.56,4.74
						c-0.23,1.44-0.5,2.67-0.72,3.55c-0.19,0.89-0.32,1.42-0.32,1.42s-1.33-0.37-2.9-1.54c-1.58-1.18-3.33-3.13-4.07-6.42
						c-0.18-0.82-0.3-1.69-0.35-2.58c-0.03-0.88,0.01-1.77,0.08-2.67c0.17-1.78,0.44-3.58,0.9-5.1c0.42-1.54,0.88-2.88,1.23-3.83
						c0.17-0.48,0.33-0.85,0.45-1.1c0.12-0.25,0.18-0.39,0.18-0.39s1.26,0.58,2.6,1.99C29.1,66.53,30.6,68.81,31.09,72.04z"/>
					<path class="st2" d="M39.57,76.5c-1.47,0.6-2.8,1.55-4.01,2.62c-1.22,1.07-2.33,2.26-3.17,3.41c-0.87,1.14-1.56,2.19-2.04,2.96
						c-0.45,0.78-0.68,1.27-0.68,1.27s1.25,0.6,3.17,0.81c1.9,0.21,4.53,0.05,7.25-1.31c0.68-0.34,1.33-0.74,1.95-1.18
						c0.64-0.43,1.27-0.89,1.85-1.37c1.18-0.96,2.15-2.02,3.08-2.93c0.9-0.93,1.62-1.78,2.11-2.41c0.24-0.31,0.44-0.56,0.59-0.73
						c0.14-0.17,0.21-0.27,0.21-0.27s-1.14-0.79-3-1.32C44.99,75.52,42.47,75.29,39.57,76.5z"/>
				</g>
				<g>
					<path class="st2" d="M20,101.65c0.71,1.55,1.13,3.26,1.5,4.96c0.38,1.7,0.59,3.39,0.71,4.88c0.35,2.99,0.32,5.23,0.32,5.23
						s-1.43-0.01-3.29-0.75c-1.86-0.74-4.14-2.22-5.81-5.31c-1.56-3.07-2.16-7.19-2.11-10.5c-0.01-0.83,0.01-1.61,0.04-2.31
						c0.04-0.7,0.12-1.32,0.18-1.84c0.12-1.04,0.23-1.66,0.23-1.66s1.41,0.24,3.13,1.3c0.86,0.53,1.8,1.25,2.68,2.24
						c0.44,0.49,0.87,1.04,1.27,1.67C19.26,100.18,19.65,100.88,20,101.65z"/>
					<path class="st2" d="M29.64,103.83c-1.24,1-2.4,2.28-3.31,3.68c-0.9,1.4-1.65,2.89-2.24,4.25c-1.08,2.74-1.56,4.95-1.56,4.95
						s1.4,0.26,3.39-0.05c1.98-0.3,4.54-1.17,6.83-3.25c2.4-2.07,4.1-4.95,5.41-7.27c0.31-0.58,0.59-1.13,0.82-1.64
						c0.25-0.5,0.47-0.94,0.65-1.31c0.35-0.74,0.53-1.2,0.53-1.2s-1.34-0.48-3.33-0.52c-0.99-0.02-2.15,0.08-3.39,0.42
						c-0.62,0.17-1.26,0.41-1.9,0.72C30.9,102.94,30.27,103.34,29.64,103.83z"/>
				</g>
				<g>
					<path class="st2" d="M16.92,133.14c1.05,1.36,2.01,2.94,2.82,4.54c0.8,1.6,1.4,3.22,1.99,4.67c0.56,1.45,0.97,2.73,1.24,3.65
						c0.13,0.46,0.25,0.83,0.33,1.08c0.08,0.25,0.12,0.39,0.12,0.39s-1.42,0.37-3.49,0.13c-2.09-0.24-4.7-1.11-7.15-3.75
						c-0.61-0.66-1.19-1.4-1.7-2.2c-0.49-0.8-0.93-1.64-1.34-2.51c-0.79-1.73-1.5-3.55-1.88-5.2c-0.42-1.65-0.7-3.13-0.88-4.2
						c-0.19-1.07-0.22-1.72-0.22-1.72s1.47-0.13,3.45,0.47C12.21,129.1,14.76,130.42,16.92,133.14z"/>
					<path class="st2" d="M27.1,132.78c-1.04,1.32-1.77,2.9-2.31,4.53c-0.54,1.63-0.96,3.32-1.11,4.82
						c-0.19,1.51-0.26,2.85-0.29,3.81c-0.02,0.48-0.01,0.87,0.01,1.13c0.02,0.26,0.02,0.41,0.02,0.41s1.47-0.11,3.34-0.94
						c1.85-0.82,4.22-2.37,5.98-5.05c0.44-0.67,0.82-1.38,1.17-2.11c0.37-0.73,0.7-1.48,0.98-2.23c0.58-1.5,0.91-2.98,1.29-4.31
						c0.34-1.33,0.56-2.49,0.69-3.32c0.12-0.83,0.2-1.33,0.2-1.33s-1.46-0.13-3.47,0.36C31.6,129.03,29.13,130.13,27.1,132.78z"/>
				</g>
				<g>
					<path class="st2" d="M21.98,164.43c2.94,2.13,5.36,5.31,7.27,7.88c0.92,1.3,1.65,2.47,2.22,3.29c0.54,0.83,0.84,1.35,0.84,1.35
						s-1.32,0.75-3.42,1.07c-2.08,0.3-5.07,0.21-8.14-1.8c-1.53-1.01-3.07-2.35-4.3-3.88c-1.25-1.52-2.37-3.17-3.26-4.7
						c-1.69-3.09-2.65-5.64-2.65-5.64s1.42-0.52,3.57-0.44C16.25,161.62,19.13,162.28,21.98,164.43z"/>
					<path class="st2" d="M32,161.37c-1.25,3.14-1.35,7.1-0.89,10.19c0.19,1.56,0.46,2.92,0.74,3.86c0.26,0.95,0.45,1.52,0.45,1.52
						s1.43-0.51,3.07-1.84c1.67-1.34,3.45-3.45,4.56-6.61c0.56-1.58,0.76-3.22,0.96-4.87c0.19-1.64,0.18-3.21,0.14-4.6
						c0.02-2.81-0.33-4.83-0.33-4.83s-1.5,0.26-3.34,1.26C35.53,156.45,33.34,158.2,32,161.37z"/>
				</g>
				<g>
					<path class="st2" d="M34.98,193.37c1.75,0.66,3.4,1.65,4.98,2.7c1.61,1.03,3.07,2.16,4.31,3.22c2.59,2.03,4.28,3.78,4.28,3.78
						s-1.11,1.1-3.1,1.97c-2,0.87-4.89,1.49-8.57,0.38c-1.81-0.58-3.59-1.58-5.29-2.73c-1.72-1.14-3.16-2.55-4.48-3.82
						c-1.32-1.27-2.32-2.52-3.02-3.43c-0.71-0.91-1.1-1.48-1.1-1.48s1.28-0.89,3.43-1.38c1.07-0.25,2.36-0.39,3.8-0.31
						C31.66,192.37,33.22,192.72,34.98,193.37z"/>
					<path class="st2" d="M44.13,187.67c-0.2,1.72-0.1,3.59,0.26,5.38c0.38,1.77,0.95,3.49,1.54,5c1.29,2.94,2.62,5.02,2.62,5.02
						s1.28-0.89,2.56-2.66c1.29-1.77,2.6-4.42,2.76-7.78c0.11-1.7-0.02-3.46-0.32-5.1c-0.32-1.63-0.63-3.26-1.06-4.61
						c-0.43-1.35-0.79-2.54-1.09-3.38c-0.29-0.83-0.51-1.32-0.51-1.32s-1.42,0.65-2.99,2.14c-0.79,0.74-1.61,1.7-2.31,2.91
						C44.92,184.48,44.32,185.96,44.13,187.67z"/>
				</g>
				<g>
					<path class="st2" d="M55.01,218.02c0.95,0.11,1.88,0.32,2.84,0.55c0.96,0.22,1.91,0.5,2.83,0.81s1.81,0.66,2.66,1.03
						c0.87,0.34,1.71,0.68,2.47,1.03c1.55,0.68,2.81,1.39,3.77,1.84c0.94,0.47,1.49,0.78,1.49,0.78s-0.81,1.39-2.56,2.79
						c-1.76,1.4-4.52,2.86-8.41,2.65c-1.96-0.09-4.05-0.55-5.99-1.3c-1.96-0.74-3.89-1.62-5.47-2.62c-1.61-0.96-2.97-1.9-3.94-2.6
						c-0.93-0.73-1.47-1.21-1.47-1.21s1.04-1.22,3.04-2.26c1-0.53,2.22-0.99,3.69-1.29C51.43,217.91,53.12,217.8,55.01,218.02z"/>
					<path class="st2" d="M62.6,209.95c0.12,0.89,0.31,1.81,0.6,2.69c0.3,0.87,0.67,1.73,1.08,2.57c0.41,0.84,0.87,1.66,1.34,2.44
						c0.5,0.75,1.01,1.46,1.52,2.11c1.02,1.3,1.96,2.44,2.72,3.14c0.74,0.73,1.22,1.14,1.22,1.14s1.03-1.22,1.83-3.31
						c0.8-2.09,1.35-5,0.69-8.46c-0.34-1.71-0.99-3.35-1.66-4.96c-0.69-1.59-1.55-2.98-2.26-4.28c-0.74-1.27-1.45-2.31-1.98-3.04
						c-0.5-0.76-0.82-1.2-0.82-1.2s-1.23,1.02-2.42,2.91c-0.59,0.94-1.18,2.13-1.54,3.5C62.53,206.59,62.37,208.16,62.6,209.95z"/>
				</g>
				<g>
					<path class="st2" d="M80.69,236.78c1.96-0.31,4.01-0.31,5.99-0.14c2,0.12,3.96,0.35,5.65,0.67c1.7,0.3,3.2,0.54,4.24,0.79
						c1.05,0.23,1.67,0.41,1.67,0.41s-0.43,1.59-1.79,3.45c-1.36,1.85-3.69,3.97-7.65,4.89c-1.96,0.4-4.14,0.45-6.31,0.29
						c-2.15-0.21-4.26-0.68-6.14-1.17c-1.87-0.51-3.44-1.15-4.59-1.6c-1.13-0.46-1.81-0.77-1.81-0.77s0.71-1.48,2.44-3.05
						C74.12,238.95,76.84,237.29,80.69,236.78z"/>
					<path class="st2" d="M86.1,226.77c0.72,1.68,1.81,3.29,3.05,4.78c1.27,1.43,2.71,2.68,4.04,3.75c1.34,1.05,2.63,1.8,3.54,2.36
						c0.92,0.55,1.5,0.84,1.5,0.84s0.7-1.49,0.93-3.79c0.24-2.3,0.03-5.39-1.58-8.55c-0.78-1.64-1.82-3.14-2.95-4.47
						c-1.11-1.38-2.27-2.64-3.35-3.65c-1.08-1.03-2.02-1.94-2.73-2.53c-0.7-0.6-1.15-0.92-1.15-0.92s-0.96,1.34-1.64,3.51
						C85.11,220.28,84.73,223.31,86.1,226.77z"/>
				</g>
				<g>
					<path class="st2" d="M110.4,248.26c3.7-1.55,8.15-2.21,11.68-2.56c1.77-0.21,3.31-0.3,4.41-0.33c1.1-0.05,1.77-0.08,1.77-0.08
						s0,1.69-0.85,3.91c-0.86,2.25-2.58,4.91-6.27,6.86c-1.85,1.01-3.99,1.56-6.19,1.97c-2.2,0.43-4.42,0.5-6.42,0.48
						c-1-0.01-1.94-0.05-2.78-0.09c-0.84-0.07-1.59-0.17-2.21-0.25c-1.25-0.17-2-0.32-2-0.32s0.31-1.66,1.61-3.66
						c0.65-1,1.53-2.09,2.72-3.11c0.59-0.51,1.26-1,2.01-1.46C108.64,249.11,109.47,248.66,110.4,248.26z"/>
					<path class="st2" d="M113.11,236.9c2.28,3.04,6.06,5.24,9.29,6.58c1.62,0.64,3.08,1.11,4.14,1.42
						c0.53,0.16,0.96,0.24,1.26,0.31c0.3,0.06,0.46,0.09,0.46,0.09s0.29-1.67-0.1-3.98c-0.38-2.29-1.42-5.36-3.84-8.07
						c-1.22-1.32-2.64-2.61-4.1-3.64c-1.47-1.01-2.94-1.96-4.28-2.72c-0.67-0.37-1.3-0.7-1.87-0.98c-0.57-0.3-1.07-0.56-1.49-0.78
						c-0.85-0.42-1.37-0.64-1.37-0.64s-0.6,1.58-0.7,3.92c-0.05,1.17,0.03,2.54,0.41,4c0.19,0.73,0.45,1.49,0.8,2.26
						C112.08,235.41,112.53,236.16,113.11,236.9z"/>
				</g>
			</g>
		</g>
	</g>
</g>
<g>
	<g>
		<g>
			<path class="st1" d="M261.7,68.98c10.52,17.66,16.26,38.13,16.37,58.69c0.11,10.28-1.21,20.56-3.72,30.51
				c-2.66,9.92-6.45,19.57-11.61,28.46c-2.5,4.49-5.42,8.74-8.48,12.85l-2.38,3.03c-0.78,1.02-1.67,1.96-2.49,2.94
				c-1.64,1.98-3.46,3.79-5.23,5.66c-3.67,3.59-7.44,7.1-11.55,10.19l-1.52,1.19l-1.57,1.12l-3.14,2.23
				c-2.18,1.36-4.28,2.84-6.54,4.07c-4.41,2.65-9.07,4.83-13.78,6.88c-2.4,0.93-4.76,1.94-7.21,2.71c-1.22,0.4-2.42,0.85-3.66,1.2
				l-3.71,1.05c-9.92,2.7-20.21,3.95-30.48,4.03"/>
			<path class="st2" d="M259.48,58.75c2.41,3.39,3.63,7.07,4.17,9.85c0.14,0.69,0.25,1.32,0.33,1.89c0.06,0.57,0.1,1.07,0.12,1.48
				c0.05,0.82,0.03,1.29,0.03,1.29s-0.4-0.25-1.05-0.73c-0.33-0.24-0.71-0.53-1.15-0.88c-0.45-0.34-0.96-0.73-1.49-1.17
				c-2.11-1.78-4.76-4.26-7.01-7.43c-2.25-3.17-3.74-6.48-4.71-9.06c-1-2.55-1.4-4.41-1.4-4.41s1.75,0.59,4.22,2
				C253.97,53.02,257.07,55.36,259.48,58.75z"/>
			<g>
				<g>
					<path class="st2" d="M260.43,76.5c1.47,0.6,2.8,1.55,4.01,2.62c1.22,1.07,2.33,2.26,3.17,3.41c0.87,1.14,1.56,2.19,2.04,2.96
						c0.45,0.78,0.68,1.27,0.68,1.27s-1.25,0.6-3.17,0.81c-1.9,0.21-4.53,0.05-7.25-1.31c-0.68-0.34-1.33-0.74-1.95-1.18
						c-0.64-0.43-1.27-0.89-1.85-1.37c-1.18-0.96-2.15-2.02-3.08-2.93c-0.9-0.93-1.62-1.78-2.11-2.41
						c-0.24-0.31-0.44-0.56-0.59-0.73c-0.14-0.17-0.21-0.27-0.21-0.27s1.14-0.79,3-1.32C255.01,75.52,257.53,75.29,260.43,76.5z"/>
					<path class="st2" d="M268.91,72.04c-0.23,1.61-0.27,3.34-0.17,5.02c0.11,1.68,0.36,3.29,0.56,4.74
						c0.23,1.44,0.5,2.67,0.72,3.55c0.19,0.89,0.32,1.42,0.32,1.42s1.33-0.37,2.9-1.54c1.58-1.18,3.33-3.13,4.07-6.42
						c0.18-0.82,0.3-1.69,0.35-2.58c0.03-0.88-0.01-1.77-0.08-2.67c-0.17-1.78-0.44-3.58-0.9-5.1c-0.42-1.54-0.88-2.88-1.23-3.83
						c-0.17-0.48-0.33-0.85-0.45-1.1c-0.12-0.25-0.18-0.39-0.18-0.39s-1.26,0.58-2.6,1.99C270.9,66.53,269.4,68.81,268.91,72.04z"/>
				</g>
				<g>
					<path class="st2" d="M270.36,103.83c1.24,1,2.4,2.28,3.31,3.68c0.9,1.4,1.65,2.89,2.24,4.25c1.08,2.74,1.56,4.95,1.56,4.95
						s-1.4,0.26-3.39-0.05c-1.98-0.3-4.54-1.17-6.83-3.25c-2.4-2.07-4.1-4.95-5.41-7.27c-0.31-0.58-0.59-1.13-0.82-1.64
						c-0.25-0.5-0.47-0.94-0.65-1.31c-0.35-0.74-0.53-1.2-0.53-1.2s1.35-0.48,3.33-0.52c0.99-0.02,2.15,0.08,3.39,0.42
						c0.62,0.17,1.26,0.41,1.9,0.72C269.1,102.94,269.73,103.34,270.36,103.83z"/>
					<path class="st2" d="M280,101.65c-0.71,1.55-1.13,3.26-1.5,4.96c-0.38,1.7-0.59,3.39-0.71,4.88c-0.35,2.99-0.32,5.23-0.32,5.23
						s1.43-0.01,3.29-0.75c1.86-0.74,4.14-2.22,5.81-5.31c1.56-3.07,2.16-7.19,2.11-10.5c0.01-0.83-0.01-1.61-0.04-2.31
						c-0.04-0.7-0.12-1.32-0.18-1.84c-0.12-1.04-0.23-1.66-0.23-1.66s-1.41,0.24-3.13,1.3c-0.86,0.53-1.8,1.25-2.68,2.24
						c-0.44,0.49-0.87,1.04-1.27,1.67C280.74,100.18,280.35,100.88,280,101.65z"/>
				</g>
				<g>
					<path class="st2" d="M272.9,132.78c1.04,1.32,1.77,2.9,2.31,4.53c0.54,1.63,0.96,3.32,1.11,4.82c0.19,1.51,0.26,2.85,0.29,3.81
						c0.02,0.48,0.01,0.87-0.01,1.13c-0.02,0.26-0.02,0.41-0.02,0.41s-1.47-0.11-3.34-0.94c-1.85-0.82-4.22-2.37-5.98-5.05
						c-0.44-0.67-0.82-1.38-1.17-2.11c-0.37-0.73-0.7-1.48-0.98-2.23c-0.58-1.5-0.91-2.98-1.29-4.31c-0.34-1.33-0.56-2.49-0.69-3.32
						c-0.12-0.83-0.2-1.33-0.2-1.33s1.46-0.13,3.47,0.36C268.4,129.03,270.87,130.13,272.9,132.78z"/>
					<path class="st2" d="M283.08,133.14c-1.05,1.36-2.01,2.94-2.82,4.54c-0.8,1.6-1.4,3.22-1.99,4.67
						c-0.56,1.45-0.97,2.73-1.24,3.65c-0.13,0.46-0.25,0.83-0.33,1.08c-0.08,0.25-0.12,0.39-0.12,0.39s1.42,0.37,3.49,0.13
						c2.09-0.24,4.7-1.11,7.15-3.75c0.61-0.66,1.19-1.4,1.7-2.2c0.49-0.8,0.93-1.64,1.34-2.51c0.79-1.73,1.5-3.55,1.88-5.2
						c0.42-1.65,0.7-3.13,0.88-4.2c0.19-1.07,0.22-1.72,0.22-1.72s-1.47-0.13-3.45,0.47C287.79,129.1,285.24,130.42,283.08,133.14z"
						/>
				</g>
				<g>
					<path class="st2" d="M268,161.37c1.25,3.14,1.35,7.1,0.89,10.19c-0.19,1.56-0.46,2.92-0.74,3.86
						c-0.26,0.95-0.45,1.52-0.45,1.52s-1.43-0.51-3.07-1.84c-1.67-1.34-3.45-3.45-4.56-6.61c-0.56-1.58-0.76-3.22-0.96-4.87
						c-0.19-1.64-0.18-3.21-0.14-4.6c-0.02-2.81,0.33-4.83,0.33-4.83s1.5,0.26,3.34,1.26C264.47,156.45,266.66,158.2,268,161.37z"/>
					<path class="st2" d="M278.02,164.43c-2.94,2.13-5.36,5.31-7.27,7.88c-0.92,1.3-1.65,2.47-2.22,3.29
						c-0.54,0.83-0.84,1.35-0.84,1.35s1.32,0.75,3.42,1.07c2.08,0.3,5.07,0.21,8.14-1.8c1.53-1.01,3.07-2.35,4.3-3.88
						c1.25-1.52,2.37-3.17,3.26-4.7c1.69-3.09,2.65-5.64,2.65-5.64s-1.42-0.52-3.57-0.44C283.75,161.62,280.87,162.28,278.02,164.43
						z"/>
				</g>
				<g>
					<path class="st2" d="M255.87,187.67c0.2,1.72,0.1,3.59-0.26,5.38c-0.38,1.77-0.95,3.49-1.54,5c-1.29,2.94-2.62,5.02-2.62,5.02
						s-1.28-0.89-2.56-2.66c-1.29-1.77-2.6-4.42-2.76-7.78c-0.11-1.7,0.02-3.46,0.32-5.1c0.32-1.63,0.63-3.26,1.06-4.61
						c0.43-1.35,0.79-2.54,1.09-3.38c0.29-0.83,0.51-1.32,0.51-1.32s1.42,0.65,2.99,2.14c0.79,0.74,1.61,1.7,2.31,2.91
						C255.08,184.48,255.68,185.96,255.87,187.67z"/>
					<path class="st2" d="M265.02,193.37c-1.75,0.66-3.4,1.65-4.98,2.7c-1.61,1.03-3.07,2.16-4.31,3.22
						c-2.59,2.03-4.28,3.78-4.28,3.78s1.11,1.1,3.1,1.97c2,0.87,4.89,1.49,8.57,0.38c1.81-0.58,3.59-1.58,5.29-2.73
						c1.72-1.14,3.16-2.55,4.48-3.82c1.32-1.27,2.32-2.52,3.02-3.43c0.71-0.91,1.1-1.48,1.1-1.48s-1.28-0.89-3.43-1.38
						c-1.07-0.25-2.36-0.39-3.8-0.31C268.34,192.37,266.78,192.72,265.02,193.37z"/>
				</g>
				<g>
					<path class="st2" d="M237.4,209.95c-0.12,0.89-0.31,1.81-0.6,2.69c-0.3,0.87-0.67,1.73-1.08,2.57
						c-0.41,0.84-0.87,1.66-1.34,2.44c-0.5,0.75-1.01,1.46-1.52,2.11c-1.02,1.3-1.96,2.44-2.72,3.14c-0.74,0.73-1.22,1.14-1.22,1.14
						s-1.03-1.22-1.83-3.31c-0.8-2.09-1.35-5-0.69-8.46c0.34-1.71,0.99-3.35,1.66-4.96c0.69-1.59,1.55-2.98,2.26-4.28
						c0.74-1.27,1.45-2.31,1.98-3.04c0.5-0.76,0.82-1.2,0.82-1.2s1.23,1.02,2.42,2.91c0.59,0.94,1.18,2.13,1.54,3.5
						C237.47,206.59,237.63,208.16,237.4,209.95z"/>
					<path class="st2" d="M244.99,218.02c-0.95,0.11-1.88,0.32-2.84,0.55c-0.96,0.22-1.91,0.5-2.83,0.81
						c-0.92,0.31-1.81,0.66-2.66,1.03c-0.87,0.34-1.71,0.68-2.47,1.03c-1.55,0.68-2.81,1.39-3.77,1.84
						c-0.94,0.47-1.49,0.78-1.49,0.78s0.81,1.39,2.56,2.79c1.76,1.4,4.52,2.86,8.41,2.65c1.96-0.09,4.05-0.55,5.99-1.3
						c1.96-0.74,3.89-1.62,5.47-2.62c1.61-0.96,2.97-1.9,3.94-2.6c0.93-0.73,1.47-1.21,1.47-1.21s-1.04-1.22-3.04-2.26
						c-1-0.53-2.22-0.99-3.69-1.29C248.57,217.91,246.88,217.8,244.99,218.02z"/>
				</g>
				<g>
					<path class="st2" d="M213.9,226.77c-0.72,1.68-1.81,3.29-3.05,4.78c-1.27,1.43-2.71,2.68-4.04,3.75
						c-1.34,1.05-2.63,1.8-3.54,2.36c-0.92,0.55-1.5,0.84-1.5,0.84s-0.7-1.49-0.93-3.79c-0.24-2.3-0.03-5.39,1.58-8.55
						c0.78-1.64,1.82-3.14,2.95-4.47c1.1-1.38,2.27-2.64,3.35-3.65c1.08-1.03,2.02-1.94,2.73-2.53c0.7-0.6,1.15-0.92,1.15-0.92
						s0.96,1.34,1.64,3.51C214.89,220.28,215.27,223.31,213.9,226.77z"/>
					<path class="st2" d="M219.31,236.78c-1.96-0.31-4.01-0.31-5.99-0.14c-2,0.12-3.96,0.35-5.65,0.67c-1.7,0.3-3.2,0.54-4.24,0.79
						c-1.05,0.23-1.67,0.41-1.67,0.41s0.43,1.59,1.79,3.45c1.36,1.85,3.69,3.97,7.65,4.89c1.96,0.4,4.14,0.45,6.31,0.29
						c2.15-0.21,4.26-0.68,6.14-1.17c1.87-0.51,3.44-1.15,4.59-1.6c1.13-0.46,1.81-0.77,1.81-0.77s-0.71-1.48-2.44-3.05
						C225.88,238.95,223.16,237.29,219.31,236.78z"/>
				</g>
				<g>
					<path class="st2" d="M186.89,236.9c-2.28,3.04-6.06,5.24-9.29,6.58c-1.62,0.64-3.08,1.11-4.14,1.42
						c-0.53,0.16-0.96,0.24-1.26,0.31c-0.3,0.06-0.46,0.09-0.46,0.09s-0.29-1.67,0.1-3.98c0.38-2.29,1.42-5.36,3.84-8.07
						c1.22-1.32,2.64-2.61,4.1-3.64c1.47-1.01,2.94-1.96,4.28-2.72c0.67-0.37,1.3-0.7,1.87-0.98c0.57-0.3,1.07-0.56,1.49-0.78
						c0.85-0.42,1.37-0.64,1.37-0.64s0.6,1.58,0.7,3.92c0.05,1.17-0.03,2.54-0.41,4c-0.19,0.73-0.45,1.49-0.8,2.26
						C187.92,235.41,187.47,236.16,186.89,236.9z"/>
					<path class="st2" d="M189.6,248.26c-3.7-1.55-8.15-2.21-11.68-2.56c-1.77-0.21-3.31-0.3-4.41-0.33
						c-1.1-0.05-1.77-0.08-1.77-0.08s0,1.69,0.85,3.91c0.86,2.25,2.58,4.91,6.27,6.86c1.85,1.01,3.99,1.56,6.19,1.97
						c2.2,0.43,4.42,0.5,6.42,0.48c1-0.01,1.94-0.05,2.78-0.09c0.84-0.07,1.59-0.17,2.21-0.25c1.25-0.17,2-0.32,2-0.32
						s-0.31-1.66-1.61-3.66c-0.65-1-1.53-2.09-2.72-3.11c-0.59-0.51-1.26-1-2.01-1.46C191.36,249.11,190.53,248.66,189.6,248.26z"/>
				</g>
			</g>
		</g>
	</g>
</g>
</svg>
